<svg width="88" height="144" viewBox="0 0 88 144" fill="none" xmlns="http://www.w3.org/2000/svg">
<path d="M50.091 26.1789L32.5169 0L9.16775 34.7821L32.5169 69.5642L36.6707 63.3769L30.8952 54.7737L50.091 26.1789Z" fill="url(#paint0_linear_85_48)"/>
<path d="M77.594 54.7735L54.2444 19.9915L50.091 26.1788L55.8665 34.782L36.6707 63.3767L54.2444 89.5552L77.594 54.7735Z" fill="url(#paint1_linear_85_48)"/>
<path d="M48.091 35.5222L30.5169 9.34375L7.16773 44.1258L30.5169 78.9079L34.6707 72.7206L28.8952 64.117L48.091 35.5222Z" stroke="white" stroke-width="1.32136" stroke-miterlimit="10"/>
<path d="M75.594 64.1168L52.2444 29.3347L48.091 35.522L53.8665 44.1257L34.6707 72.7204L52.2444 98.8989L75.594 64.1168Z" stroke="white" stroke-width="1.32136" stroke-miterlimit="10"/>
<path d="M12.4371 108.371H10.9652C10.8782 107.948 10.7258 107.576 10.5082 107.255C10.2946 106.935 10.0334 106.666 9.7248 106.448C9.42013 106.227 9.08184 106.06 8.70991 105.95C8.33798 105.839 7.95023 105.783 7.54664 105.783C6.8107 105.783 6.144 105.969 5.54654 106.341C4.95304 106.713 4.48022 107.261 4.12807 107.985C3.77989 108.709 3.60579 109.598 3.60579 110.65C3.60579 111.703 3.77989 112.591 4.12807 113.315C4.48022 114.039 4.95304 114.587 5.54654 114.959C6.144 115.331 6.8107 115.517 7.54664 115.517C7.95023 115.517 8.33798 115.461 8.70991 115.351C9.08184 115.24 9.42013 115.076 9.7248 114.858C10.0334 114.636 10.2946 114.365 10.5082 114.045C10.7258 113.72 10.8782 113.349 10.9652 112.929H12.4371C12.3263 113.55 12.1245 114.106 11.8317 114.597C11.5389 115.087 11.1749 115.505 10.7397 115.849C10.3044 116.189 9.8158 116.449 9.27373 116.627C8.73563 116.805 8.15993 116.894 7.54664 116.894C6.50999 116.894 5.58809 116.64 4.78093 116.134C3.97376 115.628 3.33872 114.907 2.87579 113.974C2.41285 113.04 2.18139 111.932 2.18139 110.65C2.18139 109.368 2.41285 108.26 2.87579 107.326C3.33872 106.393 3.97376 105.673 4.78093 105.166C5.58809 104.66 6.50999 104.406 7.54664 104.406C8.15993 104.406 8.73563 104.495 9.27373 104.674C9.8158 104.852 10.3044 105.113 10.7397 105.457C11.1749 105.797 11.5389 106.213 11.8317 106.703C12.1245 107.19 12.3263 107.746 12.4371 108.371ZM25.0713 110.65C25.0713 111.932 24.8398 113.04 24.3769 113.974C23.9139 114.907 23.2789 115.628 22.4717 116.134C21.6646 116.64 20.7427 116.894 19.706 116.894C18.6694 116.894 17.7475 116.64 16.9403 116.134C16.1331 115.628 15.4981 114.907 15.0352 113.974C14.5722 113.04 14.3408 111.932 14.3408 110.65C14.3408 109.368 14.5722 108.26 15.0352 107.326C15.4981 106.393 16.1331 105.673 16.9403 105.166C17.7475 104.66 18.6694 104.406 19.706 104.406C20.7427 104.406 21.6646 104.66 22.4717 105.166C23.2789 105.673 23.9139 106.393 24.3769 107.326C24.8398 108.26 25.0713 109.368 25.0713 110.65ZM23.6469 110.65C23.6469 109.598 23.4708 108.709 23.1186 107.985C22.7705 107.261 22.2976 106.713 21.7002 106.341C21.1067 105.969 20.442 105.783 19.706 105.783C18.9701 105.783 18.3034 105.969 17.7059 106.341C17.1124 106.713 16.6396 107.261 16.2874 107.985C15.9393 108.709 15.7652 109.598 15.7652 110.65C15.7652 111.703 15.9393 112.591 16.2874 113.315C16.6396 114.039 17.1124 114.587 17.7059 114.959C18.3034 115.331 18.9701 115.517 19.706 115.517C20.442 115.517 21.1067 115.331 21.7002 114.959C22.2976 114.587 22.7705 114.039 23.1186 113.315C23.4708 112.591 23.6469 111.703 23.6469 110.65ZM27.5462 104.573H29.3029L33.4337 114.662H33.5761L37.7069 104.573H39.4637V116.728H38.0868V107.493H37.9681L34.1696 116.728H32.8402L29.0418 107.493H28.9231V116.728H27.5462V104.573ZM42.4149 116.728V104.573H46.5219C47.4755 104.573 48.2549 104.745 48.8603 105.089C49.4696 105.429 49.9207 105.89 50.2135 106.472C50.5063 107.053 50.6527 107.702 50.6527 108.419C50.6527 109.135 50.5063 109.786 50.2135 110.371C49.9246 110.957 49.4775 111.424 48.8722 111.772C48.2668 112.116 47.4913 112.288 46.5456 112.288H43.6019V110.982H46.4982C47.151 110.982 47.6753 110.87 48.0709 110.644C48.4666 110.419 48.7535 110.114 48.9315 109.73C49.1135 109.342 49.2045 108.905 49.2045 108.419C49.2045 107.932 49.1135 107.497 48.9315 107.113C48.7535 106.729 48.4646 106.428 48.065 106.211C47.6654 105.989 47.1352 105.878 46.4744 105.878H43.8868V116.728H42.4149ZM52.2818 116.728H50.7387L55.2019 104.573H56.7212L61.1844 116.728H59.6413L56.009 106.496H55.9141L52.2818 116.728ZM52.8516 111.98H59.0715V113.285H52.8516V111.98ZM72.7161 104.573V116.728H71.2917L64.6682 107.184H64.5495V116.728H63.0776V104.573H64.502L71.1493 114.14H71.268V104.573H72.7161ZM74.6168 104.573H76.3023L79.6734 110.247H79.8159L83.187 104.573H84.8725L80.4806 111.718V116.728H79.0087V111.718L74.6168 104.573Z" fill="white"/>
<path d="M16.5468 119.555V137.657H14.4254L4.56097 123.444H4.38419V137.657H2.19209V119.555H4.31347L14.2132 133.804H14.39V119.555H16.5468ZM21.6756 137.657H19.3775L26.0245 119.555H28.2873L34.9343 137.657H32.6361L27.2266 122.419H27.0852L21.6756 137.657ZM22.5242 130.586H31.7876V132.531H22.5242V130.586Z" fill="#9B60F6"/>
<path d="M37.7539 119.555H40.3703L46.5223 134.581H46.7345L52.8865 119.555H55.5028V137.657H53.4522V123.904H53.2754L47.6184 137.657H45.6384L39.9814 123.904H39.8046V137.657H37.7539V119.555ZM59.8981 137.657V119.555H70.8232V121.5H62.0902V127.616H70.2575V129.561H62.0902V135.713H70.9646V137.657H59.8981Z" fill="#FF4488"/>
<defs>
<linearGradient id="paint0_linear_85_48" x1="9.1677" y1="34.7822" x2="50.0909" y2="34.7822" gradientUnits="userSpaceOnUse">
<stop stop-color="#9B60F6"/>
<stop offset="1" stop-color="#FF4488"/>
</linearGradient>
<linearGradient id="paint1_linear_85_48" x1="36.6706" y1="54.7734" x2="77.5938" y2="54.7734" gradientUnits="userSpaceOnUse">
<stop stop-color="#9B60F6"/>
<stop offset="1" stop-color="#FF4488"/>
</linearGradient>
</defs>
</svg>
